<?xml version="1.0" encoding="utf-8"?>
<!-- Generator: Adobe Illustrator 24.3.0, SVG Export Plug-In . SVG Version: 6.00 Build 0)  -->
<svg version="1.1" id="Layer_1" xmlns="http://www.w3.org/2000/svg" xmlns:xlink="http://www.w3.org/1999/xlink" x="0px" y="0px"
	 viewBox="0 0 585 193" style="enable-background:new 0 0 585 193;" xml:space="preserve">
<style type="text/css">
	.st0{enable-background:new    ;}
	.st1{fill:#FFFFFF;}
</style>
<g>
	<circle cx="317" cy="95" r="84"/>
</g>
<g class="st0">
	<path class="st1" d="M253.3,62.2h16c16.5,0,23.1,10.7,23.1,31.5c0,20.9-6.6,31.5-23.1,31.5h-16V62.2z M269.1,120.5
		c12,0,17.6-7.4,17.6-26.9c0-19.4-5.6-26.8-17.6-26.8h-10.3v53.7H269.1z"/>
	<path class="st1" d="M302.8,93.7c0-21.1,8.6-32.6,22.6-32.6c14.2,0,22.6,11.4,22.6,32.6c0,21.2-8.5,32.6-22.6,32.6
		C311.3,126.3,302.8,114.8,302.8,93.7z M342.1,93.7c0-18.9-6.8-27.8-16.7-27.8c-10,0-16.8,8.9-16.8,27.8c0,18.9,6.8,27.9,16.8,27.9
		C335.4,121.5,342.1,112.6,342.1,93.7z"/>
	<path class="st1" d="M386,67h-14.4v58.2h-5.5V67h-14.5v-4.8H386V67z"/>
</g>
<g class="st0">
	<path d="M14.9,95.8c0-20.8,7.1-32.6,22.3-32.6c10.1,0,16.5,5.6,18.9,16.7l-5.3,1.5c-2-9.3-6.3-13.5-13.5-13.5
		c-11.1,0-16.3,9.1-16.3,27.8c0,18.7,5.2,27.9,16.4,27.9c7.3,0,11.5-4.3,13.5-13.5l5.2,1.5c-2.2,11-8.4,16.7-18.7,16.7
		C22.1,128.4,14.9,116.6,14.9,95.8z"/>
	<path d="M98.4,79.6v47.8h-4.7l-0.2-10.5c-2.9,7.7-8.1,11.6-15,11.6c-7.8,0-12-4.7-12-14.5V79.6h5.2v34.1c0,6.8,2.4,10,7.8,10
		c5.8,0,11-4.4,13.5-13.3V79.6H98.4z"/>
	<path d="M130.9,78.8l-0.1,5.5c-7.9-0.4-12.2,3.2-14.7,13v30.1h-5.3V79.6h4.7l0.1,9.9C118.4,81.5,123.1,78.3,130.9,78.8z"/>
	<path d="M160.2,126.5c-2.5,1-4.9,1.5-7.2,1.5c-8.4,0-10.4-5.1-10.4-11.5V84h-7.3v-4.4h7.3V64.9l5.3-1.1v15.8h11.8V84h-11.8v32.2
		c0,3.9,0.7,7.1,5.9,7.1c1.9,0,3.7-0.4,5.6-1.1L160.2,126.5z"/>
	<path d="M168.6,66.5c0-2.2,1.7-3.9,3.9-3.9c2.2,0,3.9,1.7,3.9,3.9c0,2.2-1.7,3.9-3.9,3.9C170.3,70.4,168.6,68.7,168.6,66.5z
		 M169.9,79.6h5.3v47.8h-5.3V79.6z"/>
	<path d="M214.2,115.7l3.8,1.9c-2.7,7.5-7.7,10.8-14.7,10.8c-11.4,0-17.5-10-17.5-25c0-15.4,6.1-24.9,17.2-24.9
		c9.9,0,15.1,7.9,15.1,21.3c0,1.4-0.1,2.7-0.3,4.2h-26.7c0.1,12.6,4.4,19.8,12.5,19.8C208.9,123.9,212.2,121.3,214.2,115.7z
		 M191.3,99.8H213c0.2-10.3-2.8-17-10-17C195.7,82.8,191.9,89,191.3,99.8z"/>
</g>
<g class="st0">
	<path d="M418.8,96.7c0-20.8,7.1-32.6,22.3-32.6c10.1,0,16.5,5.6,18.9,16.7l-5.3,1.5c-2-9.3-6.3-13.5-13.5-13.5
		c-11.1,0-16.3,9.1-16.3,27.8c0,18.7,5.2,27.9,16.4,27.9c7.3,0,11.5-4.3,13.5-13.5l5.2,1.5c-2.2,11-8.4,16.7-18.7,16.7
		C426,129.3,418.8,117.4,418.8,96.7z"/>
	<path d="M467.6,104.3c0-16,6.4-25,17.7-25s17.7,8.9,17.7,25c0,16-6.4,25-17.7,25S467.6,120.3,467.6,104.3z M497.5,104.3
		c0-14.1-4.5-20.5-12.2-20.5c-7.7,0-12.2,6.4-12.2,20.5c0,14.1,4.5,20.4,12.2,20.4C493,124.8,497.5,118.4,497.5,104.3z"/>
	<path d="M569.5,93.6v34.6h-5.2V93.9c0-6.6-2.3-9.8-7.5-9.8c-5.6,0-10.5,4.4-12.9,13.5v30.6h-5.3V93.9c0-6.6-2.3-9.8-7.5-9.8
		c-5.7,0-10.6,4.5-13,13.8v30.2h-5.3V80.4h4.8l0.1,10.7c2.7-7.8,7.7-11.8,14.5-11.8c6.6,0,10.7,3.7,11.5,11.1
		c2.7-7.4,7.6-11.1,14.2-11.1C565.3,79.4,569.5,84.1,569.5,93.6z"/>
</g>
</svg>
