<?xml version="1.0" encoding="utf-8"?>
<!-- Generator: Adobe Illustrator 24.3.0, SVG Export Plug-In . SVG Version: 6.00 Build 0)  -->
<svg version="1.1" id="Layer_1" xmlns="http://www.w3.org/2000/svg" xmlns:xlink="http://www.w3.org/1999/xlink" x="0px" y="0px"
	 viewBox="0 0 410 216" style="enable-background:new 0 0 410 216;" xml:space="preserve">
<style type="text/css">
	.st0{fill:#FFFFFF;}
</style>
<g>
	<circle cx="317" cy="94" r="84"/>
</g>
<g>
	<path d="M15.5,91.8c0-20.8,7.1-32.6,22.3-32.6c10.1,0,16.5,5.6,18.9,16.7l-5.3,1.5C49.3,68.2,45,64,37.8,64
		c-11.1,0-16.3,9.1-16.3,27.8c0,18.7,5.2,27.9,16.4,27.9c7.3,0,11.5-4.3,13.5-13.5l5.2,1.5c-2.2,11-8.4,16.7-18.7,16.7
		C22.7,124.4,15.5,112.6,15.5,91.8z"/>
	<path d="M99.1,75.6v47.8h-4.7l-0.2-10.5c-2.9,7.7-8.1,11.6-15,11.6c-7.8,0-12-4.7-12-14.5V75.6h5.2v34.1c0,6.8,2.4,10,7.8,10
		c5.8,0,11-4.4,13.5-13.3V75.6H99.1z"/>
	<path d="M131.5,74.8l-0.1,5.5c-7.9-0.4-12.2,3.2-14.7,13v30.1h-5.3V75.6h4.7l0.1,9.9C119,77.5,123.7,74.3,131.5,74.8z"/>
	<path d="M160.8,122.5c-2.5,1-4.9,1.5-7.2,1.5c-8.4,0-10.4-5.1-10.4-11.5V80h-7.3v-4.4h7.3V60.9l5.3-1.1v15.8h11.8V80h-11.8v32.2
		c0,3.9,0.7,7.1,5.9,7.1c1.9,0,3.7-0.4,5.6-1.1L160.8,122.5z"/>
	<path d="M169.2,62.5c0-2.2,1.7-3.9,3.9-3.9c2.2,0,3.9,1.7,3.9,3.9c0,2.2-1.7,3.9-3.9,3.9C170.9,66.4,169.2,64.7,169.2,62.5z
		 M170.5,75.6h5.3v47.8h-5.3V75.6z"/>
	<path d="M214.8,111.7l3.8,1.9c-2.7,7.5-7.7,10.8-14.7,10.8c-11.4,0-17.5-10-17.5-25c0-15.4,6.1-24.9,17.2-24.9
		c9.9,0,15.1,7.9,15.1,21.3c0,1.4-0.1,2.7-0.3,4.2h-26.7c0.1,12.6,4.4,19.8,12.5,19.8C209.5,119.9,212.8,117.3,214.8,111.7z
		 M191.9,95.8h21.8c0.2-10.3-2.8-17-10-17C196.3,78.8,192.5,85,191.9,95.8z"/>
</g>
<g>
	<path d="M66.4,162.7c0-20.8,7.1-32.6,22.3-32.6c10.1,0,16.5,5.6,18.9,16.7l-5.3,1.5c-2-9.3-6.3-13.5-13.5-13.5
		c-11.1,0-16.3,9.1-16.3,27.8c0,18.7,5.2,27.9,16.4,27.9c7.3,0,11.5-4.3,13.5-13.5l5.2,1.5c-2.2,11-8.4,16.7-18.7,16.7
		C73.5,195.3,66.4,183.4,66.4,162.7z"/>
	<path d="M115.2,170.3c0-16,6.4-25,17.7-25c11.3,0,17.7,8.9,17.7,25c0,16-6.4,25-17.7,25C121.5,195.3,115.2,186.3,115.2,170.3z
		 M145.1,170.3c0-14.1-4.5-20.5-12.2-20.5c-7.7,0-12.2,6.4-12.2,20.5c0,14.1,4.5,20.4,12.2,20.4
		C140.5,190.8,145.1,184.4,145.1,170.3z"/>
	<path d="M217,159.6v34.6h-5.2v-34.3c0-6.6-2.3-9.8-7.5-9.8c-5.6,0-10.5,4.4-12.9,13.5v30.6h-5.3v-34.3c0-6.6-2.3-9.8-7.5-9.8
		c-5.7,0-10.6,4.5-13,13.8v30.2h-5.3v-47.8h4.8l0.1,10.7c2.7-7.8,7.7-11.8,14.5-11.8c6.6,0,10.7,3.7,11.5,11.1
		c2.7-7.4,7.6-11.1,14.2-11.1C212.9,145.4,217,150.1,217,159.6z"/>
</g>
<g>
	<path class="st0" d="M252,61.5h16c16.5,0,23.1,10.7,23.1,31.5c0,20.9-6.6,31.5-23.1,31.5h-16V61.5z M267.8,119.8
		c12,0,17.6-7.4,17.6-26.9c0-19.4-5.6-26.8-17.6-26.8h-10.3v53.7H267.8z"/>
	<path class="st0" d="M301.5,93c0-21.1,8.6-32.6,22.6-32.6c14.2,0,22.6,11.4,22.6,32.6c0,21.2-8.5,32.6-22.6,32.6
		C310,125.6,301.5,114.1,301.5,93z M340.8,93c0-18.9-6.8-27.8-16.7-27.8c-10,0-16.8,8.9-16.8,27.8c0,18.9,6.8,27.9,16.8,27.9
		C334.1,120.8,340.8,111.9,340.8,93z"/>
	<path class="st0" d="M384.7,66.3h-14.4v58.2h-5.5V66.3h-14.5v-4.8h34.3V66.3z"/>
</g>
</svg>
